<svg viewBox="0 0 64 64" fill="none" xmlns="http://www.w3.org/2000/svg" role="img">
  
  <rect x="4" y="4" width="56" height="56" rx="15" fill="#0E50A0" fill-opacity="0.13"></rect>
  
  <path d="M16 32c4-9 22-11 30-3 2-3 6-5 9-5-1 3-1 5 0 8-1 3-1 5 0 8-3 0-7-2-9-5-8 8-26 6-30-3Z" fill="#0E50A0"></path>
  
  <path d="M26 24c3-4 8-5 12-4-2 2-3 4-3 6-3-1-6-2-9-2Z" fill="#0E50A0"></path>
  
  <path d="M27 40c3 3 7 4 11 3-2-2-2-4-2-6-3 1-6 2-9 3Z" fill="#0E50A0"></path>
  
  <circle cx="22" cy="30" r="2.4" fill="#FFFFFF"></circle>
  
  <path d="M28 27c-2 3-2 7 0 10" stroke="#FFFFFF" stroke-width="1.8" stroke-linecap="round" fill="none"></path>
</svg>